<svg width="97" height="97" viewBox="0 0 97 97" fill="none" xmlns="http://www.w3.org/2000/svg">
<path d="M78.0112 60.0112C74.4511 60.0112 70.971 61.0669 68.0109 63.0447C65.0509 65.0226 62.7437 67.8338 61.3814 71.1229C60.019 74.412 59.6625 78.0312 60.3571 81.5228C61.0516 85.0145 62.7659 88.2218 65.2833 90.7391C67.8006 93.2565 71.0079 94.9708 74.4996 95.6653C77.9912 96.3599 81.6104 96.0034 84.8995 94.641C88.1886 93.2787 90.9998 90.9716 92.9777 88.0115C94.9555 85.0514 96.0112 81.5713 96.0112 78.0112C96.0059 73.2389 94.1078 68.6636 90.7333 65.2891C87.3588 61.9146 82.7835 60.0165 78.0112 60.0112ZM78.0112 84.0112C76.8245 84.0112 75.6645 83.6593 74.6778 83C73.6911 82.3407 72.9221 81.4037 72.4679 80.3073C72.0138 79.2109 71.895 78.0045 72.1265 76.8407C72.358 75.6768 72.9294 74.6077 73.7686 73.7686C74.6077 72.9294 75.6768 72.358 76.8407 72.1265C78.0045 71.895 79.2109 72.0138 80.3073 72.4679C81.4037 72.9221 82.3407 73.6911 83 74.6778C83.6593 75.6645 84.0112 76.8245 84.0112 78.0112C84.0081 79.6016 83.375 81.1259 82.2505 82.2505C81.1259 83.375 79.6016 84.0081 78.0112 84.0112Z" fill="#FF5154"/>
<path d="M25.769 34.2534C26.3255 34.813 26.987 35.2574 27.7156 35.5609C28.4441 35.8645 29.2254 36.0213 30.0147 36.0224C30.8039 36.0235 31.5856 35.8689 32.315 35.5673C33.0444 35.2658 33.7071 34.8233 34.2652 34.2652C34.8233 33.7071 35.2658 33.0444 35.5673 32.315C35.8689 31.5856 36.0235 30.8039 36.0224 30.0147C36.0213 29.2254 35.8645 28.4441 35.5609 27.7156C35.2574 26.987 34.813 26.3255 34.2534 25.769L26.4956 18.0112L34.2534 10.2534C34.813 9.69687 35.2574 9.03538 35.5609 8.30683C35.8645 7.57829 36.0213 6.797 36.0224 6.00775C36.0235 5.21849 35.8689 4.43677 35.5673 3.70739C35.2658 2.978 34.8233 2.31527 34.2652 1.75718C33.7071 1.19909 33.0444 0.75661 32.315 0.455081C31.5856 0.153553 30.8039 -0.00109227 30.0147 5.80696e-06C29.2254 0.00110389 28.4441 0.157924 27.7156 0.461481C26.987 0.765037 26.3255 1.20936 25.769 1.769L18.0112 9.5268L10.2534 1.769C9.12722 0.649073 7.60291 0.0214046 6.01466 0.0236143C4.42642 0.025824 2.90385 0.657731 1.78079 1.78079C0.657731 2.90385 0.025824 4.42642 0.0236143 6.01466C0.0214046 7.60291 0.649073 9.12722 1.769 10.2534L9.5268 18.0112L1.769 25.769C1.20936 26.3255 0.765037 26.987 0.461481 27.7156C0.157924 28.4441 0.00110389 29.2254 5.80696e-06 30.0147C-0.00109227 30.8039 0.153553 31.5856 0.455081 32.315C0.75661 33.0444 1.19909 33.7071 1.75718 34.2652C2.31527 34.8233 2.978 35.2658 3.70739 35.5673C4.43677 35.8689 5.21849 36.0235 6.00775 36.0224C6.797 36.0213 7.57829 35.8645 8.30683 35.5609C9.03538 35.2574 9.69687 34.813 10.2534 34.2534L18.0112 26.4956L25.769 34.2534Z" fill="#FF5154"/>
<path d="M83.8156 20.3L85.769 22.2534C86.8952 23.3734 88.4195 24.001 90.0077 23.9988C91.596 23.9966 93.1186 23.3647 94.2416 22.2416C95.3647 21.1186 95.9966 19.596 95.9988 18.0078C96.001 16.4195 95.3733 14.8952 94.2534 13.769L82.2534 1.76902C81.6964 1.21175 81.0351 0.769684 80.3072 0.468076C79.5793 0.166469 78.7991 0.0112305 78.0112 0.0112305C77.2233 0.0112305 76.4431 0.166469 75.7152 0.468076C74.9873 0.769684 74.326 1.21175 73.769 1.76902L61.769 13.769C60.6491 14.8952 60.0214 16.4195 60.0236 18.0078C60.0258 19.596 60.6577 21.1186 61.7808 22.2416C62.9039 23.3647 64.4264 23.9966 66.0147 23.9988C67.6029 24.001 69.1272 23.3734 70.2534 22.2534L71.8266 20.6801C70.8891 36.321 62.0276 39.1301 48.8198 43.019C32.4253 47.8471 12.0112 53.8471 12.0112 90.0112C12.0112 91.6025 12.6433 93.1286 13.7686 94.2539C14.8938 95.3791 16.4199 96.0112 18.0112 96.0112C19.6025 96.0112 21.1286 95.3791 22.2538 94.2539C23.3791 93.1286 24.0112 91.6025 24.0112 90.0112C24.0112 62.8237 36.4565 59.1675 52.2065 54.5268C65.9336 50.4846 82.7719 45.302 83.8156 20.3Z" fill="#FF5154"/>
</svg>
